# xmcd
#
# Track frame offsets: 
#        150
#        45019
#        86451
#        110547
#        148913
#
# Disc length: 2525 seconds
#
# Revision: 0
# Processed by: cddbd v1.5.2PL0 Copyright (c) Steve Scherf et al.
# Submitted via: ExactAudioCopy v0.99pb4
#
DISCID=3709db05
DTITLE=Aidan O'Rourke - An Tobar
DYEAR=2008
DGENRE=Celtic
TTITLE0=An Tobar
TTITLE1=Sea
TTITLE2=Tobar Nan Ealain
TTITLE3=One for Martyn
TTITLE4=Eas Fors
EXTD=
EXTT0=
EXTT1=
EXTT2=
EXTT3=
EXTT4=
PLAYORDER=
